<svg xmlns="http://www.w3.org/2000/svg" viewBox="0 0 25 25"><rect width="25" height="25" fill="#ffffff"></rect><defs><filter id="filter_3"><feMorphology in="SourceGraphic" operator="erode" radius="0.09" result="morphology_12"></feMorphology><feTurbulence type="fractalNoise" baseFrequency="0.2" result="turbulence_6"></feTurbulence><feDisplacementMap in="morphology_12" in2="turbulence_6" scale="0.7" xChannelSelector="R" yChannelSelector="B" result="displacementMap_7"></feDisplacementMap></filter></defs><g fill="#000000" filter="url(#filter_3)"><path d="M2,2.5a.5.5 0,0,1 .5-.5h6a.5.5 0,0,1 .5.5v6a.5.5 0,0,1 -.5.5h-6a.5.5 0,0,1 -.5-.5zM3.5,3a.5.5 0,0,0 -.5.5v4a.5.5 0,0,0 .5.5h4a.5.5 0,0,0 .5-.5v-4a.5.5 0,0,0 -.5-.5z"></path><path d="M10,2.5a.5.5 0,0,1 .5-.5h1a.5.5 0,0,1 .5.5v0a.5.5 0,0,0 .5.5h1a.5.5 0,0,1 .5.5v0a.5.5 0,0,1 -.5.5h-2a.5.5 0,0,0 -.5.5v0a.5.5 0,0,0 .5.5h0a.5.5 0,0,1 .5.5v1a.5.5 0,0,1 -.5.5h-1a.5.5 0,0,1 -.5-.5z"></path><path d="M14,2.5a.5.5 0,0,1 .5-.5h0a.5.5 0,0,1 .5.5v0a.5.5 0,0,1 -.5.5h0a.5.5 0,0,1 -.5-.5z"></path><path d="M16,2.5a.5.5 0,0,1 .5-.5h6a.5.5 0,0,1 .5.5v6a.5.5 0,0,1 -.5.5h-6a.5.5 0,0,1 -.5-.5zM17.5,3a.5.5 0,0,0 -.5.5v4a.5.5 0,0,0 .5.5h4a.5.5 0,0,0 .5-.5v-4a.5.5 0,0,0 -.5-.5z"></path><path d="M4,4.5a.5.5 0,0,1 .5-.5h2a.5.5 0,0,1 .5.5v2a.5.5 0,0,1 -.5.5h-2a.5.5 0,0,1 -.5-.5z"></path><path d="M14,4.5a.5.5 0,0,1 .5-.5h0a.5.5 0,0,1 .5.5v2a.5.5 0,0,1 -.5.5h-1a.5.5 0,0,1 -.5-.5v-1a.5.5 0,0,1 .5-.5h0a.5.5 0,0,0 .5-.5z"></path><path d="M18,4.5a.5.5 0,0,1 .5-.5h2a.5.5 0,0,1 .5.5v2a.5.5 0,0,1 -.5.5h-2a.5.5 0,0,1 -.5-.5z"></path><path d="M12,7.5a.5.5 0,0,1 .5-.5h0a.5.5 0,0,1 .5.5v1a.5.5 0,0,1 -.5.5h0a.5.5 0,0,1 -.5-.5z"></path><path d="M10,8.5a.5.5 0,0,1 .5-.5h0a.5.5 0,0,1 .5.5v1a.5.5 0,0,1 -.5.5h0a.5.5 0,0,1 -.5-.5z"></path><path d="M14,8.5a.5.5 0,0,1 .5-.5h0a.5.5 0,0,1 .5.5v1a.5.5 0,0,1 -.5.5h-1a.5.5 0,0,1 -.5-.5v0a.5.5 0,0,1 .5-.5h0a.5.5 0,0,0 .5-.5z"></path><path d="M3,10.5a.5.5 0,0,1 .5-.5h1a.5.5 0,0,1 .5.5v0a.5.5 0,0,1 -.5.5h-1a.5.5 0,0,1 -.5-.5z"></path><path d="M6,10.5a.5.5 0,0,1 .5-.5h0a.5.5 0,0,1 .5.5v0a.5.5 0,0,1 -.5.5h0a.5.5 0,0,1 -.5-.5z"></path><path d="M8,10.5a.5.5 0,0,1 .5-.5h1a.5.5 0,0,1 .5.5v0a.5.5 0,0,1 -.5.5h-1a.5.5 0,0,1 -.5-.5z"></path><path d="M11,10.5a.5.5 0,0,1 .5-.5h1a.5.5 0,0,1 .5.5v0a.5.5 0,0,0 .5.5h0a.5.5 0,0,1 .5.5v0a.5.5 0,0,1 -.5.5h0a.5.5 0,0,0 -.5.5v0a.5.5 0,0,1 -.5.5h0a.5.5 0,0,1 -.5-.5v0a.5.5 0,0,0 -.5-.5h-1a.5.5 0,0,1 -.5-.5v0a.5.5 0,0,1 .5-.5h0a.5.5 0,0,0 .5-.5z"></path><path d="M16,10.5a.5.5 0,0,1 .5-.5h0a.5.5 0,0,1 .5.5v0a.5.5 0,0,1 -.5.5h0a.5.5 0,0,1 -.5-.5z"></path><path d="M18,10.5a.5.5 0,0,1 .5-.5h4a.5.5 0,0,1 .5.5v4a.5.5 0,0,1 -.5.5h0a.5.5 0,0,1 -.5-.5v-1a.5.5 0,0,0 -.5-.5h0a.5.5 0,0,1 -.5-.5v0a.5.5 0,0,0 -.5-.5h0a.5.5 0,0,1 -.5-.5v0a.5.5 0,0,0 -.5-.5h0a.5.5 0,0,0 -.5.5v0a.5.5 0,0,0 .5.5h0a.5.5 0,0,1 .5.5v0a.5.5 0,0,1 -.5.5h0a.5.5 0,0,0 -.5.5v2a.5.5 0,0,0 .5.5h0a.5.5 0,0,0 .5-.5v0a.5.5 0,0,1 .5-.5h1a.5.5 0,0,1 .5.5v0a.5.5 0,0,0 .5.5h0a.5.5 0,0,1 .5.5v1a.5.5 0,0,1 -.5.5h-1a.5.5 0,0,1 -.5-.5v0a.5.5 0,0,0 -.5-.5h-2a.5.5 0,0,0 -.5.5v0a.5.5 0,0,1 -.5.5h0a.5.5 0,0,1 -.5-.5v-1a.5.5 0,0,1 .5-.5h0a.5.5 0,0,0 .5-.5v-2a.5.5 0,0,0 -.5-.5h-2a.5.5 0,0,1 -.5-.5v-1a.5.5 0,0,1 .5-.5h0a.5.5 0,0,1 .5.5v0a.5.5 0,0,0 .5.5h0a.5.5 0,0,0 .5-.5v0a.5.5 0,0,1 .5-.5h0a.5.5 0,0,0 .5-.5z"></path><path d="M5,11.5a.5.5 0,0,1 .5-.5h0a.5.5 0,0,1 .5.5v1a.5.5 0,0,0 .5.5h0a.5.5 0,0,0 .5-.5v-1a.5.5 0,0,1 .5-.5h0a.5.5 0,0,1 .5.5v0a.5.5 0,0,0 .5.5h0a.5.5 0,0,1 .5.5v0a.5.5 0,0,1 -.5.5h0a.5.5 0,0,0 -.5.5v0a.5.5 0,0,1 -.5.5h-3a.5.5 0,0,1 -.5-.5v0a.5.5 0,0,1 .5-.5h0a.5.5 0,0,0 .5-.5z"></path><path d="M2,12.5a.5.5 0,0,1 .5-.5h0a.5.5 0,0,1 .5.5v1a.5.5 0,0,1 -.5.5h0a.5.5 0,0,1 -.5-.5z"></path><path d="M14,13.5a.5.5 0,0,1 .5-.5h0a.5.5 0,0,1 .5.5v2a.5.5 0,0,1 -.5.5h0a.5.5 0,0,0 -.5.5v0a.5.5 0,0,1 -.5.5h-1a.5.5 0,0,0 -.5.5v1a.5.5 0,0,0 .5.5h1a.5.5 0,0,1 .5.5v1a.5.5 0,0,0 .5.5h0a.5.5 0,0,0 .5-.5v-1a.5.5 0,0,0 -.5-.5h0a.5.5 0,0,1 -.5-.5v0a.5.5 0,0,1 .5-.5h1a.5.5 0,0,1 .5.5v3a.5.5 0,0,1 -.5.5h-1a.5.5 0,0,0 -.5.5v0a.5.5 0,0,1 -.5.5h0a.5.5 0,0,1 -.5-.5v0a.5.5 0,0,0 -.5-.5h0a.5.5 0,0,1 -.5-.5v0a.5.5 0,0,1 .5-.5h0a.5.5 0,0,0 .5-.5v0a.5.5 0,0,0 -.5-.5h0a.5.5 0,0,0 -.5.5v0a.5.5 0,0,1 -.5.5h0a.5.5 0,0,0 -.5.5v0a.5.5 0,0,1 -.5.5h0a.5.5 0,0,1 -.5-.5v-1a.5.5 0,0,1 .5-.5h0a.5.5 0,0,0 .5-.5v0a.5.5 0,0,0 -.5-.5h0a.5.5 0,0,1 -.5-.5v0a.5.5 0,0,1 .5-.5h0a.5.5 0,0,0 .5-.5v0a.5.5 0,0,0 -.5-.5h0a.5.5 0,0,1 -.5-.5v-1a.5.5 0,0,1 .5-.5h1a.5.5 0,0,1 .5.5v0a.5.5 0,0,0 .5.5h0a.5.5 0,0,0 .5-.5v0a.5.5 0,0,1 .5-.5h0a.5.5 0,0,0 .5-.5z"></path><path d="M3,14.5a.5.5 0,0,1 .5-.5h0a.5.5 0,0,1 .5.5v0a.5.5 0,0,1 -.5.5h0a.5.5 0,0,1 -.5-.5z"></path><path d="M8,14.5a.5.5 0,0,1 .5-.5h0a.5.5 0,0,1 .5.5v0a.5.5 0,0,1 -.5.5h0a.5.5 0,0,1 -.5-.5z"></path><path d="M12,14.5a.5.5 0,0,1 .5-.5h0a.5.5 0,0,1 .5.5v0a.5.5 0,0,1 -.5.5h0a.5.5 0,0,1 -.5-.5z"></path><path d="M16,15.5a.5.5 0,0,1 .5-.5h0a.5.5 0,0,1 .5.5v0a.5.5 0,0,1 -.5.5h0a.5.5 0,0,1 -.5-.5z"></path><path d="M2,16.5a.5.5 0,0,1 .5-.5h6a.5.5 0,0,1 .5.5v6a.5.5 0,0,1 -.5.5h-6a.5.5 0,0,1 -.5-.5zM3.5,17a.5.5 0,0,0 -.5.5v4a.5.5 0,0,0 .5.5h4a.5.5 0,0,0 .5-.5v-4a.5.5 0,0,0 -.5-.5z"></path><path d="M4,18.5a.5.5 0,0,1 .5-.5h2a.5.5 0,0,1 .5.5v2a.5.5 0,0,1 -.5.5h-2a.5.5 0,0,1 -.5-.5z"></path><path d="M18,18.5a.5.5 0,0,1 .5-.5h0a.5.5 0,0,1 .5.5v0a.5.5 0,0,0 .5.5h2a.5.5 0,0,1 .5.5v0a.5.5 0,0,1 -.5.5h0a.5.5 0,0,0 -.5.5v0a.5.5 0,0,1 -.5.5h-1a.5.5 0,0,0 -.5.5v1a.5.5 0,0,1 -.5.5h0a.5.5 0,0,1 -.5-.5v-2a.5.5 0,0,0 -.5-.5h0a.5.5 0,0,1 -.5-.5v0a.5.5 0,0,1 .5-.5h0a.5.5 0,0,0 .5-.5z"></path><path d="M22,20.5a.5.5 0,0,1 .5-.5h0a.5.5 0,0,1 .5.5v0a.5.5 0,0,1 -.5.5h0a.5.5 0,0,1 -.5-.5z"></path><path d="M21,21.5a.5.5 0,0,1 .5-.5h0a.5.5 0,0,1 .5.5v0a.5.5 0,0,0 .5.5h0a.5.5 0,0,1 .5.5v0a.5.5 0,0,1 -.5.5h-1a.5.5 0,0,1 -.5-.5z"></path><path d="M16,22.5a.5.5 0,0,1 .5-.5h0a.5.5 0,0,1 .5.5v0a.5.5 0,0,1 -.5.5h0a.5.5 0,0,1 -.5-.5z"></path></g></svg>