<svg xmlns="http://www.w3.org/2000/svg" viewBox="0 0 250 250"><rect y="0" x="0" width="250" height="250" fill="white"></rect><defs><filter id="filter_6"><feMorphology in="SourceGraphic" operator="dilate" radius="2.5" result="morphology_8"></feMorphology></filter></defs><path d="M20,20h10v10h-10zM30,20h10v10h-10zM40,20h10v10h-10zM50,20h10v10h-10zM60,20h10v10h-10zM70,20h10v10h-10zM80,20h10v10h-10zM100,20h10v10h-10zM110,20h10v10h-10zM140,20h10v10h-10zM160,20h10v10h-10zM170,20h10v10h-10zM180,20h10v10h-10zM190,20h10v10h-10zM200,20h10v10h-10zM210,20h10v10h-10zM220,20h10v10h-10zM20,30h10v10h-10zM80,30h10v10h-10zM100,30h10v10h-10zM160,30h10v10h-10zM220,30h10v10h-10zM20,40h10v10h-10zM40,40h10v10h-10zM50,40h10v10h-10zM60,40h10v10h-10zM80,40h10v10h-10zM100,40h10v10h-10zM110,40h10v10h-10zM120,40h10v10h-10zM160,40h10v10h-10zM180,40h10v10h-10zM190,40h10v10h-10zM200,40h10v10h-10zM220,40h10v10h-10zM20,50h10v10h-10zM40,50h10v10h-10zM50,50h10v10h-10zM60,50h10v10h-10zM80,50h10v10h-10zM110,50h10v10h-10zM120,50h10v10h-10zM130,50h10v10h-10zM160,50h10v10h-10zM180,50h10v10h-10zM190,50h10v10h-10zM200,50h10v10h-10zM220,50h10v10h-10zM20,60h10v10h-10zM40,60h10v10h-10zM50,60h10v10h-10zM60,60h10v10h-10zM80,60h10v10h-10zM120,60h10v10h-10zM130,60h10v10h-10zM140,60h10v10h-10zM160,60h10v10h-10zM180,60h10v10h-10zM190,60h10v10h-10zM200,60h10v10h-10zM220,60h10v10h-10zM20,70h10v10h-10zM80,70h10v10h-10zM100,70h10v10h-10zM110,70h10v10h-10zM120,70h10v10h-10zM140,70h10v10h-10zM160,70h10v10h-10zM220,70h10v10h-10zM20,80h10v10h-10zM30,80h10v10h-10zM40,80h10v10h-10zM50,80h10v10h-10zM60,80h10v10h-10zM70,80h10v10h-10zM80,80h10v10h-10zM100,80h10v10h-10zM120,80h10v10h-10zM140,80h10v10h-10zM160,80h10v10h-10zM170,80h10v10h-10zM180,80h10v10h-10zM190,80h10v10h-10zM200,80h10v10h-10zM210,80h10v10h-10zM220,80h10v10h-10zM100,90h10v10h-10zM110,90h10v10h-10zM40,100h10v10h-10zM50,100h10v10h-10zM60,100h10v10h-10zM80,100h10v10h-10zM100,100h10v10h-10zM140,100h10v10h-10zM150,100h10v10h-10zM160,100h10v10h-10zM170,100h10v10h-10zM200,100h10v10h-10zM210,100h10v10h-10zM220,100h10v10h-10zM30,110h10v10h-10zM50,110h10v10h-10zM60,110h10v10h-10zM90,110h10v10h-10zM120,110h10v10h-10zM130,110h10v10h-10zM140,110h10v10h-10zM170,110h10v10h-10zM190,110h10v10h-10zM220,110h10v10h-10zM20,120h10v10h-10zM30,120h10v10h-10zM40,120h10v10h-10zM50,120h10v10h-10zM60,120h10v10h-10zM70,120h10v10h-10zM80,120h10v10h-10zM90,120h10v10h-10zM100,120h10v10h-10zM110,120h10v10h-10zM120,120h10v10h-10zM140,120h10v10h-10zM180,120h10v10h-10zM190,120h10v10h-10zM200,120h10v10h-10zM210,120h10v10h-10zM20,130h10v10h-10zM50,130h10v10h-10zM70,130h10v10h-10zM90,130h10v10h-10zM120,130h10v10h-10zM160,130h10v10h-10zM170,130h10v10h-10zM180,130h10v10h-10zM190,130h10v10h-10zM200,130h10v10h-10zM210,130h10v10h-10zM20,140h10v10h-10zM40,140h10v10h-10zM50,140h10v10h-10zM70,140h10v10h-10zM80,140h10v10h-10zM90,140h10v10h-10zM100,140h10v10h-10zM130,140h10v10h-10zM150,140h10v10h-10zM160,140h10v10h-10zM180,140h10v10h-10zM190,140h10v10h-10zM220,140h10v10h-10zM100,150h10v10h-10zM120,150h10v10h-10zM140,150h10v10h-10zM150,150h10v10h-10zM160,150h10v10h-10zM170,150h10v10h-10zM200,150h10v10h-10zM20,160h10v10h-10zM30,160h10v10h-10zM40,160h10v10h-10zM50,160h10v10h-10zM60,160h10v10h-10zM70,160h10v10h-10zM80,160h10v10h-10zM120,160h10v10h-10zM130,160h10v10h-10zM140,160h10v10h-10zM160,160h10v10h-10zM170,160h10v10h-10zM200,160h10v10h-10zM210,160h10v10h-10zM20,170h10v10h-10zM80,170h10v10h-10zM130,170h10v10h-10zM140,170h10v10h-10zM160,170h10v10h-10zM170,170h10v10h-10zM190,170h10v10h-10zM200,170h10v10h-10zM220,170h10v10h-10zM20,180h10v10h-10zM40,180h10v10h-10zM50,180h10v10h-10zM60,180h10v10h-10zM80,180h10v10h-10zM100,180h10v10h-10zM110,180h10v10h-10zM120,180h10v10h-10zM130,180h10v10h-10zM150,180h10v10h-10zM210,180h10v10h-10zM20,190h10v10h-10zM40,190h10v10h-10zM50,190h10v10h-10zM60,190h10v10h-10zM80,190h10v10h-10zM100,190h10v10h-10zM110,190h10v10h-10zM150,190h10v10h-10zM160,190h10v10h-10zM180,190h10v10h-10zM200,190h10v10h-10zM20,200h10v10h-10zM40,200h10v10h-10zM50,200h10v10h-10zM60,200h10v10h-10zM80,200h10v10h-10zM100,200h10v10h-10zM130,200h10v10h-10zM150,200h10v10h-10zM190,200h10v10h-10zM200,200h10v10h-10zM20,210h10v10h-10zM80,210h10v10h-10zM130,210h10v10h-10zM140,210h10v10h-10zM160,210h10v10h-10zM180,210h10v10h-10zM190,210h10v10h-10zM200,210h10v10h-10zM20,220h10v10h-10zM30,220h10v10h-10zM40,220h10v10h-10zM50,220h10v10h-10zM60,220h10v10h-10zM70,220h10v10h-10zM80,220h10v10h-10zM110,220h10v10h-10zM130,220h10v10h-10zM150,220h10v10h-10zM170,220h10v10h-10zM210,220h10v10h-10z" fill="black" filter="url(#filter_6)"></path></svg>