<svg xmlns="http://www.w3.org/2000/svg" viewBox="0 0 250 250"><defs><filter id="filter_12"><feFlood flood-color="black" result="flood_6"></feFlood><feComposite in="flood_6" in2="SourceGraphic" operator="over" result="composite_7"></feComposite><feTurbulence baseFrequency="0.1 0" numOctaves="10" seed="11" result="turbulence_3"></feTurbulence><feColorMatrix in="turbulence_3" type="matrix" values="2 0 0 0 0 0 1 0 0 0 0 0 2 0 0 0 0 0 5 0" result="colorMatrix_14"></feColorMatrix><feMerge result="merge_10"><feMergeNode in="composite_7"></feMergeNode><feMergeNode in="colorMatrix_14"></feMergeNode></feMerge><feComposite in="merge_10" in2="SourceGraphic" operator="lighter" result="composite_13"></feComposite></filter></defs><g filter="url(#filter_12)"><path d="M0,0h250v250h-250z" fill="white"></path><path d="M20,20h10v10h-10zM30,20h10v10h-10zM40,20h10v10h-10zM50,20h10v10h-10zM60,20h10v10h-10zM70,20h10v10h-10zM80,20h10v10h-10zM140,20h10v10h-10zM160,20h10v10h-10zM170,20h10v10h-10zM180,20h10v10h-10zM190,20h10v10h-10zM200,20h10v10h-10zM210,20h10v10h-10zM220,20h10v10h-10zM20,30h10v10h-10zM80,30h10v10h-10zM110,30h10v10h-10zM130,30h10v10h-10zM140,30h10v10h-10zM160,30h10v10h-10zM220,30h10v10h-10zM20,40h10v10h-10zM40,40h10v10h-10zM50,40h10v10h-10zM60,40h10v10h-10zM80,40h10v10h-10zM100,40h10v10h-10zM110,40h10v10h-10zM140,40h10v10h-10zM160,40h10v10h-10zM180,40h10v10h-10zM190,40h10v10h-10zM200,40h10v10h-10zM220,40h10v10h-10zM20,50h10v10h-10zM40,50h10v10h-10zM50,50h10v10h-10zM60,50h10v10h-10zM80,50h10v10h-10zM100,50h10v10h-10zM110,50h10v10h-10zM130,50h10v10h-10zM160,50h10v10h-10zM180,50h10v10h-10zM190,50h10v10h-10zM200,50h10v10h-10zM220,50h10v10h-10zM20,60h10v10h-10zM40,60h10v10h-10zM50,60h10v10h-10zM60,60h10v10h-10zM80,60h10v10h-10zM120,60h10v10h-10zM130,60h10v10h-10zM140,60h10v10h-10zM160,60h10v10h-10zM180,60h10v10h-10zM190,60h10v10h-10zM200,60h10v10h-10zM220,60h10v10h-10zM20,70h10v10h-10zM80,70h10v10h-10zM120,70h10v10h-10zM160,70h10v10h-10zM220,70h10v10h-10zM20,80h10v10h-10zM30,80h10v10h-10zM40,80h10v10h-10zM50,80h10v10h-10zM60,80h10v10h-10zM70,80h10v10h-10zM80,80h10v10h-10zM100,80h10v10h-10zM120,80h10v10h-10zM140,80h10v10h-10zM160,80h10v10h-10zM170,80h10v10h-10zM180,80h10v10h-10zM190,80h10v10h-10zM200,80h10v10h-10zM210,80h10v10h-10zM220,80h10v10h-10zM110,90h10v10h-10zM140,90h10v10h-10zM50,100h10v10h-10zM60,100h10v10h-10zM80,100h10v10h-10zM90,100h10v10h-10zM110,100h10v10h-10zM120,100h10v10h-10zM130,100h10v10h-10zM190,100h10v10h-10zM200,100h10v10h-10zM20,110h10v10h-10zM40,110h10v10h-10zM50,110h10v10h-10zM60,110h10v10h-10zM70,110h10v10h-10zM100,110h10v10h-10zM110,110h10v10h-10zM120,110h10v10h-10zM140,110h10v10h-10zM160,110h10v10h-10zM180,110h10v10h-10zM190,110h10v10h-10zM200,110h10v10h-10zM210,110h10v10h-10zM40,120h10v10h-10zM70,120h10v10h-10zM80,120h10v10h-10zM90,120h10v10h-10zM110,120h10v10h-10zM120,120h10v10h-10zM140,120h10v10h-10zM150,120h10v10h-10zM170,120h10v10h-10zM190,120h10v10h-10zM200,120h10v10h-10zM210,120h10v10h-10zM220,120h10v10h-10zM20,130h10v10h-10zM40,130h10v10h-10zM60,130h10v10h-10zM70,130h10v10h-10zM100,130h10v10h-10zM120,130h10v10h-10zM140,130h10v10h-10zM160,130h10v10h-10zM170,130h10v10h-10zM200,130h10v10h-10zM210,130h10v10h-10zM220,130h10v10h-10zM30,140h10v10h-10zM60,140h10v10h-10zM80,140h10v10h-10zM90,140h10v10h-10zM130,140h10v10h-10zM140,140h10v10h-10zM170,140h10v10h-10zM180,140h10v10h-10zM210,140h10v10h-10zM220,140h10v10h-10zM100,150h10v10h-10zM130,150h10v10h-10zM150,150h10v10h-10zM160,150h10v10h-10zM170,150h10v10h-10zM180,150h10v10h-10zM200,150h10v10h-10zM220,150h10v10h-10zM20,160h10v10h-10zM30,160h10v10h-10zM40,160h10v10h-10zM50,160h10v10h-10zM60,160h10v10h-10zM70,160h10v10h-10zM80,160h10v10h-10zM100,160h10v10h-10zM110,160h10v10h-10zM120,160h10v10h-10zM180,160h10v10h-10zM20,170h10v10h-10zM80,170h10v10h-10zM110,170h10v10h-10zM140,170h10v10h-10zM150,170h10v10h-10zM160,170h10v10h-10zM170,170h10v10h-10zM180,170h10v10h-10zM190,170h10v10h-10zM200,170h10v10h-10zM210,170h10v10h-10zM20,180h10v10h-10zM40,180h10v10h-10zM50,180h10v10h-10zM60,180h10v10h-10zM80,180h10v10h-10zM100,180h10v10h-10zM120,180h10v10h-10zM130,180h10v10h-10zM140,180h10v10h-10zM150,180h10v10h-10zM160,180h10v10h-10zM190,180h10v10h-10zM210,180h10v10h-10zM220,180h10v10h-10zM20,190h10v10h-10zM40,190h10v10h-10zM50,190h10v10h-10zM60,190h10v10h-10zM80,190h10v10h-10zM100,190h10v10h-10zM120,190h10v10h-10zM130,190h10v10h-10zM140,190h10v10h-10zM150,190h10v10h-10zM160,190h10v10h-10zM190,190h10v10h-10zM20,200h10v10h-10zM40,200h10v10h-10zM50,200h10v10h-10zM60,200h10v10h-10zM80,200h10v10h-10zM120,200h10v10h-10zM180,200h10v10h-10zM200,200h10v10h-10zM210,200h10v10h-10zM220,200h10v10h-10zM20,210h10v10h-10zM80,210h10v10h-10zM120,210h10v10h-10zM130,210h10v10h-10zM140,210h10v10h-10zM190,210h10v10h-10zM200,210h10v10h-10zM210,210h10v10h-10zM220,210h10v10h-10zM20,220h10v10h-10zM30,220h10v10h-10zM40,220h10v10h-10zM50,220h10v10h-10zM60,220h10v10h-10zM70,220h10v10h-10zM80,220h10v10h-10zM130,220h10v10h-10zM150,220h10v10h-10zM170,220h10v10h-10zM180,220h10v10h-10zM190,220h10v10h-10z" fill="black"></path></g></svg>